<svg width="276" height="276" viewBox="0 0 276 276" fill="none" xmlns="http://www.w3.org/2000/svg">
<path d="M207 241.5V224.25H224.25V241.5H207Z" fill="#BDBDBD"/>
<path d="M155.25 207V189.75H172.5V207H155.25Z" fill="#BDBDBD"/>
<path d="M155.25 258.75H189.75V241.5H172.5V224.25H155.25V258.75Z" fill="#BDBDBD"/>
<path d="M224.25 224.25V189.75H241.5V224.25H224.25Z" fill="#BDBDBD"/>
<path d="M241.5 224.25H258.75V258.75H224.25V241.5H241.5V224.25Z" fill="#BDBDBD"/>
<path d="M224.25 172.5V155.25H258.75V189.75H241.5V172.5H224.25Z" fill="#BDBDBD"/>
<path d="M207 172.5H189.75V207H172.5V224.25H207V172.5Z" fill="#BDBDBD"/>
<path d="M155.25 172.5V155.25H189.75V172.5H155.25Z" fill="#BDBDBD"/>
<path d="M51.75 189.75H86.25V224.25H51.75V189.75Z" fill="#BDBDBD"/>
<path d="M120.75 258.75H17.25V155.25H120.75V258.75ZM34.5 241.5H103.5V172.5H34.5V241.5Z" fill="#BDBDBD"/>
<path d="M189.75 51.75H224.25V86.25H189.75V51.75Z" fill="#BDBDBD"/>
<path d="M258.75 120.75H155.25V17.25H258.75V120.75ZM172.5 103.5H241.5V34.5H172.5V103.5Z" fill="#BDBDBD"/>
<path d="M51.75 51.75H86.25V86.25H51.75V51.75Z" fill="#BDBDBD"/>
<path d="M120.75 120.75H17.25V17.25H120.75V120.75ZM34.5 103.5H103.5V34.5H34.5V103.5Z" fill="#BDBDBD"/>
</svg>
